<?xml version="1.0" encoding="UTF-8" standalone="no"?>
<!-- Created with Inkscape (http://www.inkscape.org/) -->

<svg
   width="153.07391mm"
   height="152.46407mm"
   viewBox="0 0 153.07391 152.46407"
   version="1.1"
   id="svg1"
   inkscape:version="1.4.4 (dcaf3e7d9e, 2026-05-05)"
   sodipodi:docname="favicon.svg"
   xmlns:inkscape="http://www.inkscape.org/namespaces/inkscape"
   xmlns:sodipodi="http://sodipodi.sourceforge.net/DTD/sodipodi-0.dtd"
   xmlns="http://www.w3.org/2000/svg"
   xmlns:svg="http://www.w3.org/2000/svg">
  <sodipodi:namedview
     id="namedview1"
     pagecolor="#ffffff"
     bordercolor="#000000"
     borderopacity="0.25"
     inkscape:showpageshadow="2"
     inkscape:pageopacity="0.0"
     inkscape:pagecheckerboard="0"
     inkscape:deskcolor="#d1d1d1"
     inkscape:document-units="mm"
     inkscape:zoom="0.4338454"
     inkscape:cx="285.8161"
     inkscape:cy="305.40833"
     inkscape:window-width="1366"
     inkscape:window-height="696"
     inkscape:window-x="0"
     inkscape:window-y="0"
     inkscape:window-maximized="1"
     inkscape:current-layer="layer1" />
  <defs
     id="defs1" />
  <g
     inkscape:label="Camada 1"
     inkscape:groupmode="layer"
     id="layer1"
     transform="translate(-29.40448,-67.694038)">
    <ellipse
       style="fill:#000000;stroke-width:0.257641"
       id="path1"
       cx="105.94144"
       cy="143.92607"
       rx="76.536957"
       ry="76.232033" />
    <g
       id="g9"
       transform="matrix(0.14429187,0,0,0.14429187,-155.75427,69.784561)">
      <path
         id="rect1"
         style="fill:#ffffff;stroke:none;stroke-width:0.974355"
         d="m 1529.5391,407.9043 c -54.5909,0 -98.5391,43.9482 -98.5391,98.5391 v 16.6757 c 0,54.5909 43.9482,98.5411 98.5391,98.5411 h 51.5234 c 54.5909,0 98.5391,-43.9502 98.5391,-98.5411 v -16.6757 c 0,-54.5909 -43.9482,-98.5391 -98.5391,-98.5391 z m 12.5976,51.1387 h 24.7813 c 30.6654,0 55.3515,24.6861 55.3515,55.3515 0,30.6654 -24.6861,55.3535 -55.3515,55.3535 h -24.7813 c -30.6654,0 -55.3535,-24.6881 -55.3535,-55.3535 0,-30.6654 24.6881,-55.3515 55.3535,-55.3515 z" />
      <rect
         style="fill:#009ee6;fill-opacity:1;stroke:none;stroke-width:0.977736"
         id="rect2"
         width="66.825829"
         height="40.816242"
         x="1522.3444"
         y="494.61621"
         ry="13.015944" />
      <path
         id="rect3"
         style="fill:#ffffff;stroke:none;stroke-width:0.984677"
         d="m 1713.5078,407.1348 c -9.3564,0 -16.8906,7.5323 -16.8906,16.8886 v 180.7422 c 0,9.3564 7.5342,16.8887 16.8906,16.8887 h 138.1504 c 1.9875,0 3.892,-0.3398 5.6602,-0.9648 49.1764,-2.984 87.8769,-43.5649 87.8769,-93.5176 v -26.3281 c 0,-51.5758 -41.2567,-93.1599 -92.7031,-93.6875 -0.2767,-0.013 -0.5539,-0.022 -0.834,-0.022 z m 50.082,53.1953 h 74.2911 c 0.3296,0 0.6493,0.035 0.9589,0.1015 28.2527,1.1127 50.668,24.491 50.668,53.3614 0,28.8703 -22.4153,52.2467 -50.668,53.3593 -0.3096,0.066 -0.6293,0.1016 -0.9589,0.1016 h -74.2911 c -2.5439,0 -4.5917,-2.0723 -4.5918,-4.6465 v -97.6308 c 0,-2.5742 2.0479,-4.6465 4.5918,-4.6465 z" />
      <path
         id="rect4"
         style="fill:#13c700;fill-opacity:1;stroke:none;stroke-width:0.899802"
         d="m 1787.7598,494.8516 c -1.9069,0 -3.4414,1.5345 -3.4414,3.4414 v 33.1894 c 0,1.9069 1.5345,3.4414 3.4414,3.4414 h 23.8554 26.3086 v 0 h 4.1387 c 7.3673,0 13.2988,-5.9315 13.2988,-13.2988 v -13.4766 c 0,-7.3673 -5.9315,-13.2968 -13.2988,-13.2968 h -4.1426 -26.3183 z" />
      <path
         id="rect5"
         style="fill:#ffffff;stroke:none;stroke-width:0.857073"
         d="m 1994.9336,406 c -1.2242,0 -2.4189,0.1194 -3.5742,0.3477 h -12.2832 c -10.198,0 -18.4082,8.2102 -18.4082,18.4082 v 176.955 c 0,10.198 8.2102,18.4082 18.4082,18.4082 h 24.7402 c 10.1979,0 18.4063,-8.2102 18.4063,-18.4082 v -20.9023 h 65.0175 c 0.7497,0 1.4895,-0.044 2.2149,-0.1309 h 19.584 c 48.3491,0 87.2714,-38.9243 87.2714,-87.2734 0,-48.3491 -38.9223,-87.2734 -87.2714,-87.2734 h -19.584 c -0.7255,-0.087 -1.4652,-0.1309 -2.2149,-0.1309 z m 30.9258,52.8633 h 66 c 0.2537,0 0.4996,0.033 0.7344,0.092 h 8.7656 c 19.6001,0 35.3789,15.7787 35.3789,35.3789 0,19.6001 -15.7788,35.3789 -35.3789,35.3789 h -8.7656 c -0.2348,0.059 -0.4808,0.092 -0.7344,0.092 h -66 c -1.6455,0 -2.9707,-1.3252 -2.9707,-2.9707 v -65 c 0,-1.6454 1.3252,-2.9707 2.9707,-2.9707 z" />
    </g>
  </g>
</svg>
